<?xml version="1.0" encoding="UTF-8"?>
<svg version="1.1" xmlns="http://www.w3.org/2000/svg" width="225" height="225">
<path d="M0 0 C1.48372772 1.2445827 2.96303242 2.49446052 4.4375 3.75 C6.10050934 5.08789218 7.76625836 6.42240559 9.4375 7.75 C8.57385766 12.2742397 5.95824454 14.69684842 2.79296875 17.86328125 C2.22677322 18.4370903 1.6605777 19.01089935 1.07722473 19.60209656 C-0.12017339 20.8102853 -1.32155636 22.014536 -2.52661133 23.21508789 C-4.37197453 25.05947613 -6.19497375 26.92416731 -8.01757812 28.79101562 C-9.18359328 29.96223571 -10.35086937 31.1322021 -11.51953125 32.30078125 C-12.06446732 32.86211258 -12.60940338 33.42344391 -13.17085266 34.00178528 C-14.73754883 35.5402832 -14.73754883 35.5402832 -17.5625 37.75 C-21.11923788 37.64165926 -23.03123667 35.75439323 -25.6875 33.5 C-37.87387078 23.841758 -54.02355726 18.95913233 -69.5625 20.75 C-87.68261024 23.805477 -102.42652424 31.87493749 -113.5625 46.75 C-122.22724956 60.92257487 -125.82101742 76.13037442 -122.87109375 92.61328125 C-118.70044557 109.69723341 -110.19332894 123.58946053 -95.2890625 133.2890625 C-79.48951347 141.75472344 -62.03750607 143.9166084 -44.8125 139.125 C-27.96981047 133.30283572 -15.75453737 122.36744023 -7.5625 106.75 C-7.2325 105.76 -6.9025 104.77 -6.5625 103.75 C-18.4425 103.42 -30.3225 103.09 -42.5625 102.75 C-42.5625 88.89 -42.5625 75.03 -42.5625 60.75 C-22.63733483 60.70989119 -22.63733483 60.70989119 -14.17382812 60.70117188 C-8.38841846 60.69518347 -2.60302455 60.68808324 3.18237305 60.67456055 C7.8442712 60.66373153 12.50615246 60.65772314 17.16806221 60.65512276 C18.95074288 60.65326853 20.73342259 60.64964797 22.51609612 60.64426994 C25.0041596 60.63705931 27.49215243 60.63600907 29.98022461 60.63647461 C30.72468842 60.63287933 31.46915222 60.62928406 32.23617554 60.62557983 C37.32344784 60.63594784 37.32344784 60.63594784 38.4375 61.75 C43.60996455 88.68376181 37.09992953 115.98913555 22.4375 138.75 C20.22485607 141.86324487 17.88522902 144.82005005 15.4375 147.75 C14.695 148.74 13.9525 149.73 13.1875 150.75 C-1.98601755 168.70947487 -26.87706159 180.49337287 -49.96484375 183.46875 C-76.78034572 185.56507589 -104.07356328 180.50777618 -125.4375 163.25 C-127.15390237 161.75923989 -128.86273997 160.25970812 -130.5625 158.75 C-131.71298828 157.81414062 -131.71298828 157.81414062 -132.88671875 156.859375 C-152.8218148 140.29898107 -163.44481997 114.78762757 -166.18359375 89.515625 C-168.37595186 62.95522906 -159.59431513 36.10952324 -142.5625 15.75 C-141.64404297 14.58791016 -141.64404297 14.58791016 -140.70703125 13.40234375 C-125.3160646 -5.20464578 -100.79075774 -18.15110979 -76.89404297 -21.0390625 C-48.93489317 -23.56856045 -22.23491271 -17.66969429 0 0 Z " fill="#ED432A" transform="translate(175.5625,31.25)"/>
<path d="M0 0 C19.92516517 -0.04010881 19.92516517 -0.04010881 28.38867188 -0.04882812 C34.17408154 -0.05481653 39.95947545 -0.06191676 45.74487305 -0.07543945 C50.4067712 -0.08626847 55.06865246 -0.09227686 59.73056221 -0.09487724 C61.51324288 -0.09673147 63.29592259 -0.10035203 65.07859612 -0.10573006 C67.5666596 -0.11294069 70.05465243 -0.11399093 72.54272461 -0.11352539 C73.28718842 -0.11712067 74.03165222 -0.12071594 74.79867554 -0.12442017 C79.88594784 -0.11405216 79.88594784 -0.11405216 81 1 C86.17246455 27.93376181 79.66242953 55.23913555 65 78 C62.78735607 81.11324487 60.44772902 84.07005005 58 87 C57.2575 87.99 56.515 88.98 55.75 90 C40.57648245 107.95947487 15.68543841 119.74337287 -7.40234375 122.71875 C-34.36821057 124.82683079 -61.7233813 119.69260612 -83.125 102.25 C-84.75463373 100.83866611 -86.37989916 99.42226675 -88 98 C-89.66033106 96.6587855 -91.32522383 95.32313277 -93 94 C-91.36221955 89.80374091 -88.26676818 87.01323215 -85.1171875 83.921875 C-84.54292023 83.35043762 -83.96865295 82.77900024 -83.37698364 82.19024658 C-81.5476419 80.37207055 -79.71145807 78.56098508 -77.875 76.75 C-76.63105226 75.51608671 -75.3875573 74.28171678 -74.14453125 73.046875 C-71.10157633 70.02593257 -68.05246746 67.01132908 -65 64 C-61.66205847 65.59959498 -59.02691088 67.50596597 -56.125 69.8125 C-42.40031095 79.89557156 -25.53700669 82.44381127 -9 80 C6.03420665 76.90571138 20.69211221 68.43727492 29.4296875 55.57421875 C32.01174081 51.54045785 34.479968 47.56009599 36 43 C24.12 42.67 12.24 42.34 0 42 C0 28.14 0 14.28 0 0 Z " fill="#24A849" transform="translate(133,92)"/>
<path d="M0 0 C4.04256217 1.62779213 6.84055384 4.48334272 9.89453125 7.48828125 C10.44614426 8.02849411 10.99775726 8.56870697 11.56608582 9.12528992 C12.72612721 10.26648909 13.88332548 11.41058464 15.0378418 12.55737305 C16.81019214 14.31021754 18.60270989 16.04060624 20.39648438 17.77148438 C21.52214429 18.88409189 22.64653829 19.99798194 23.76953125 21.11328125 C24.3089888 21.6280452 24.84844635 22.14280914 25.4042511 22.673172 C26.88208008 24.16918945 26.88208008 24.16918945 29 27 C28.86603643 30.7596443 27.71271831 32.74649584 25.3125 35.5625 C15.20422711 48.53802337 11.52455274 63.73692407 13 80 C15.42099319 93.52747044 20.40771678 105.11531865 30 115 C24.47349666 121.74080425 18.30550441 127.8071129 12.125 133.9375 C11.04403726 135.01343727 9.96330617 136.08960731 8.8828125 137.16601562 C6.25787359 139.78003292 3.62981372 142.39088596 1 145 C0.21012695 144.20956299 -0.57974609 143.41912598 -1.39355469 142.60473633 C-2.82571363 141.17351642 -4.25989683 139.74427583 -5.703125 138.32421875 C-14.89732204 128.59601532 -20.84790089 115.57117755 -25 103 C-25.29519531 102.13632813 -25.59039063 101.27265625 -25.89453125 100.3828125 C-33.94177701 74.29863658 -29.23129195 46.94241719 -17.1796875 22.95703125 C-14.09270063 17.14334616 -10.2177996 12.04893138 -6 7 C-5.37222656 6.24460937 -4.74445312 5.48921875 -4.09765625 4.7109375 C-2.75287547 3.12251408 -1.38049646 1.55748318 0 0 Z " fill="#FDBD03" transform="translate(39,40)"/>
<path d="M0 0 C19.92516517 -0.04010881 19.92516517 -0.04010881 28.38867188 -0.04882812 C34.17408154 -0.05481653 39.95947545 -0.06191676 45.74487305 -0.07543945 C50.4067712 -0.08626847 55.06865246 -0.09227686 59.73056221 -0.09487724 C61.51324288 -0.09673147 63.29592259 -0.10035203 65.07859612 -0.10573006 C67.5666596 -0.11294069 70.05465243 -0.11399093 72.54272461 -0.11352539 C73.28718842 -0.11712067 74.03165222 -0.12071594 74.79867554 -0.12442017 C79.88594784 -0.11405216 79.88594784 -0.11405216 81 1 C86.17246455 27.93376181 79.66242953 55.23913555 65 78 C62.78777933 81.11264933 60.459804 84.08047535 58 87 C57.23429687 87.93005859 57.23429687 87.93005859 56.453125 88.87890625 C55.31179567 90.26068418 54.15765085 91.63186718 53 93 C48.80374091 91.36221955 46.01323215 88.26676818 42.921875 85.1171875 C42.35043762 84.54292023 41.77900024 83.96865295 41.19024658 83.37698364 C39.37207055 81.5476419 37.56098508 79.71145807 35.75 77.875 C34.51608671 76.63105226 33.28171678 75.3875573 32.046875 74.14453125 C29.02593257 71.10157633 26.01132908 68.05246746 23 65 C24.37638861 62.16511597 25.83322053 59.82951544 27.8125 57.375 C31.69380947 52.30086553 31.69380947 52.30086553 36 43 C24.12 42.67 12.24 42.34 0 42 C0 28.14 0 14.28 0 0 Z " fill="#3382F9" transform="translate(133,92)"/>
<path d="M0 0 C3.17833021 1.46580526 5.82343563 3.28523374 8.625 5.375 C13.4827817 8.83761523 18.37469829 11.07303495 24 13 C23.67 14.32 23.34 15.64 23 17 C22.01 16.67 21.02 16.34 20 16 C19.67 15.01 19.34 14.02 19 13 C17.68 13 16.36 13 15 13 C15 12.34 15 11.68 15 11 C14.01 11 13.02 11 12 11 C12 10.34 12 9.68 12 9 C10.9790625 8.6596875 10.9790625 8.6596875 9.9375 8.3125 C6.3011291 6.68773854 2.97170737 4.67196743 0 2 C0 1.34 0 0.68 0 0 Z " fill="#26984B" transform="translate(69,157)"/>
<path d="M0 0 C0.33 0 0.66 0 1 0 C0.22095672 16.8929385 0.22095672 16.8929385 -2 24 C-2.33 24 -2.66 24 -3 24 C-3.33 20.04 -3.66 16.08 -4 12 C-3.01 11.67 -2.02 11.34 -1 11 C-1.01160156 10.28972656 -1.02320313 9.57945313 -1.03515625 8.84765625 C-1.04869141 7.46900391 -1.04869141 7.46900391 -1.0625 6.0625 C-1.07410156 5.14597656 -1.08570313 4.22945313 -1.09765625 3.28515625 C-1 1 -1 1 0 0 Z " fill="#3A7DDB" transform="translate(214,116)"/>
<path d="M0 0 C0.99 0.66 1.98 1.32 3 2 C2.43040847 5.62613199 1.07625466 7.25517741 -1.5625 9.75 C-2.52349609 10.67039062 -2.52349609 10.67039062 -3.50390625 11.609375 C-3.99761719 12.06828125 -4.49132812 12.5271875 -5 13 C-6 11 -6 11 -5.0625 7.875 C-4.711875 6.92625 -4.36125 5.9775 -4 5 C-3.34 5 -2.68 5 -2 5 C-2 4.34 -2 3.68 -2 3 C-1.34 2.67 -0.68 2.34 0 2 C0 1.34 0 0.68 0 0 Z " fill="#D6442F" transform="translate(182,37)"/>
<path d="M0 0 C2.375 0.1875 2.375 0.1875 5 1 C6.125 3.5 6.125 3.5 7 6 C7.99 6.33 8.98 6.66 10 7 C10 6.01 10 5.02 10 4 C10.66 4 11.32 4 12 4 C12.33 3.01 12.66 2.02 13 1 C13.99 1.66 14.98 2.32 16 3 C13.69 5.31 11.38 7.62 9 10 C5.73991357 6.83047153 2.77762123 3.60062011 0 0 Z " fill="#DEC426" transform="translate(31,175)"/>
<path d="M0 0 C1.65 1.65 3.3 3.3 5 5 C3.7625 4.9175 2.525 4.835 1.25 4.75 C-2.06433993 4.72661841 -2.69562523 4.73675696 -5.3125 7 C-5.869375 7.66 -6.42625 8.32 -7 9 C-7.99 9 -8.98 9 -10 9 C-10.33 9.99 -10.66 10.98 -11 12 C-11.99 11.67 -12.98 11.34 -14 11 C-9.37951624 7.27380342 -4.69017194 3.63769327 0 0 Z " fill="#269856" transform="translate(155,156)"/>
<path d="M0 0 C1.98 1.65 3.96 3.3 6 5 C4.50902342 8.7952131 2.24299151 10.61042731 -1 13 C-0.9278125 12.22914063 -0.855625 11.45828125 -0.78125 10.6640625 C-0.64203125 9.15972656 -0.64203125 9.15972656 -0.5 7.625 C-0.4071875 6.62726563 -0.314375 5.62953125 -0.21875 4.6015625 C0.02792947 2.10296264 0.02792947 2.10296264 0 0 Z " fill="#299E4E" transform="translate(178,179)"/>
<path d="M0 0 C0.33 0.99 0.66 1.98 1 3 C-0.90242907 6.17071512 -3.06146685 9.08366322 -5.25 12.0625 C-7.06447289 15.10822235 -7.40723123 16.5385345 -7 20 C-8.32 19.01 -9.64 18.02 -11 17 C-9.63446739 14.06639166 -8.04784103 11.61363796 -6.0625 9.0625 C-3.82841786 6.14016762 -1.80685711 3.21219041 0 0 Z " fill="#3881D3" transform="translate(167,140)"/>
<path d="M0 0 C3.90285767 1.58667578 6.33520982 4.13350481 9.25 7.125 C10.14203125 8.03507812 11.0340625 8.94515625 11.953125 9.8828125 C12.62859375 10.58148438 13.3040625 11.28015625 14 12 C12.68 12.33 11.36 12.66 10 13 C9.4225 12.071875 8.845 11.14375 8.25 10.1875 C5.35027137 6.07955111 2.50512682 4.09166602 -2 2 C-1.34 1.34 -0.68 0.68 0 0 Z " fill="#FBAE1E" transform="translate(39,40)"/>
<path d="M0 0 C1.27433584 2.54867169 1.27570202 4.17405433 1 7 C-0.5 8.8125 -0.5 8.8125 -2 10 C-2.99 9.67 -3.98 9.34 -5 9 C-5 9.99 -5 10.98 -5 12 C-5.66 12 -6.32 12 -7 12 C-5.44298069 7.32894208 -2.91552627 3.91294315 0 0 Z " fill="#F5BB1C" transform="translate(30,51)"/>
<path d="M0 0 C0 4.60147126 -2.89771848 6.80688592 -6 10 C-7.94658033 11.75806017 -9.93543443 13.37784133 -12 15 C-12.66 14.67 -13.32 14.34 -14 14 C-9.38 9.38 -4.76 4.76 0 0 Z " fill="#4EA233" transform="translate(63,161)"/>
<path d="M0 0 C0.66 0.33 1.32 0.66 2 1 C0.35 2.65 -1.3 4.3 -3 6 C-3.66 5.67 -4.32 5.34 -5 5 C-5 5.66 -5 6.32 -5 7 C-9.625 9.125 -9.625 9.125 -13 8 C-10.880788 6.63594382 -8.75551882 5.28368225 -6.625 3.9375 C-6.02171875 3.54755859 -5.4184375 3.15761719 -4.796875 2.75585938 C-3.23507443 1.77539568 -1.62007786 0.88083925 0 0 Z " fill="#D84029" transform="translate(65,21)"/>
<path d="M0 0 C0.66 0.33 1.32 0.66 2 1 C-0.63886654 5.2026393 -3.36440339 8.56638098 -7 12 C-7.66 11.67 -8.32 11.34 -9 11 C-8.401875 10.443125 -7.80375 9.88625 -7.1875 9.3125 C-5.00787473 7.00832471 -3.58246062 4.73334108 -2 2 C-1.34 1.34 -0.68 0.68 0 0 Z " fill="#34A540" transform="translate(68,156)"/>
<path d="M0 0 C0.75 2.125 0.75 2.125 1 4 C-2.91211733 2.84414715 -5.8745041 1.64465038 -9 -1 C-5.30729773 -2.02575063 -3.15786978 -2.36840234 0 0 Z " fill="#289B4F" transform="translate(72,203)"/>
<path d="M0 0 C-0.99 0.66 -1.98 1.32 -3 2 C-2.67 2.66 -2.34 3.32 -2 4 C-2.66 4 -3.32 4 -4 4 C-4 4.66 -4 5.32 -4 6 C-4.99 5.67 -5.98 5.34 -7 5 C-6.67 4.34 -6.34 3.68 -6 3 C-7.32 2.67 -8.64 2.34 -10 2 C-8.71211992 1.46987262 -7.41953322 0.9511671 -6.125 0.4375 C-5.40570313 0.14746094 -4.68640625 -0.14257812 -3.9453125 -0.44140625 C-2 -1 -2 -1 0 0 Z " fill="#DC462E" transform="translate(81,16)"/>
<path d="M0 0 C1.65 0 3.3 0 5 0 C3.62845496 2.95409701 2.01136276 5.44008376 0 8 C-1.125 2.25 -1.125 2.25 0 0 Z " fill="#F0BB1C" transform="translate(59,74)"/>
<path d="M0 0 C-3.63 2.31 -7.26 4.62 -11 7 C-11.33 6.34 -11.66 5.68 -12 5 C-11.34 5 -10.68 5 -10 5 C-10 4.01 -10 3.02 -10 2 C-3.375 -1.125 -3.375 -1.125 0 0 Z " fill="#D3422F" transform="translate(85,58)"/>
<path d="M0 0 C1.58624235 0.42683239 3.1689098 0.86696158 4.75 1.3125 C6.07257813 1.67794922 6.07257813 1.67794922 7.421875 2.05078125 C10 3 10 3 14 6 C10.7 5.67 7.4 5.34 4 5 C4 4.01 4 3.02 4 2 C2.68 2 1.36 2 0 2 C0 1.34 0 0.68 0 0 Z " fill="#D24434" transform="translate(144,15)"/>
<path d="M0 0 C2.31 1.98 4.62 3.96 7 6 C4.53721199 7.231394 2.7204945 7.07159196 0 7 C0 4.69 0 2.38 0 0 Z " fill="#24A162" transform="translate(164,165)"/>
<path d="M0 0 C2.33944736 0.28730055 4.6739143 0.61936779 7 1 C4.64722731 3.72426311 2.37503669 4.8141763 -1 6 C-1.042721 4.33388095 -1.04063832 2.66617115 -1 1 C-0.67 0.67 -0.34 0.34 0 0 Z " fill="#2A9B4C" transform="translate(161,197)"/>
<path d="M0 0 C0.66 0.33 1.32 0.66 2 1 C-1.465 3.97 -1.465 3.97 -5 7 C-5.33 5.68 -5.66 4.36 -6 3 C-4.03533587 1.93224776 -2.03144641 0.93446535 0 0 Z " fill="#CF4233" transform="translate(167,57)"/>
<path d="M0 0 C1.98 1.65 3.96 3.3 6 5 C5.67 5.99 5.34 6.98 5 8 C4.34 7.67 3.68 7.34 3 7 C3 6.01 3 5.02 3 4 C2.34 4 1.68 4 1 4 C0.67 2.68 0.34 1.36 0 0 Z " fill="#229E62" transform="translate(178,179)"/>
<path d="M0 0 C0.99 0 1.98 0 3 0 C3 0.99 3 1.98 3 3 C3.66 3.66 4.32 4.32 5 5 C4.01 5.33 3.02 5.66 2 6 C2 5.34 2 4.68 2 4 C1.01 3.67 0.02 3.34 -1 3 C-0.67 2.01 -0.34 1.02 0 0 Z " fill="#3A85F4" transform="translate(183,178)"/>
<path d="M0 0 C2.475 0.495 2.475 0.495 5 1 C5.66 3.31 6.32 5.62 7 8 C4.35247996 5.42215154 2.05567935 3.08351902 0 0 Z " fill="#EDB924" transform="translate(31,175)"/>
<path d="M0 0 C1 3 1 3 -0.4375 6.1875 C-1.2109375 7.5796875 -1.2109375 7.5796875 -2 9 C-2.66 7.68 -3.32 6.36 -4 5 C-2.68 3.35 -1.36 1.7 0 0 Z " fill="#3D7EDF" transform="translate(206,151)"/>
<path d="M0 0 C1.65 1.65 3.3 3.3 5 5 C3.35 6.32 1.7 7.64 0 9 C0.185625 8.071875 0.37125 7.14375 0.5625 6.1875 C1.24123881 2.98656229 1.24123881 2.98656229 0 0 Z " fill="#D6BE33" transform="translate(64,151)"/>
</svg>
